<?xml version="1.0" standalone="no"?>
<!DOCTYPE svg PUBLIC "-//W3C//DTD SVG 1.1//EN" "http://www.w3.org/Graphics/SVG/1.1/DTD/svg11.dtd" >
<svg xmlns="http://www.w3.org/2000/svg">
<metadata>
This is a custom SVG webfont generated by Font Squirrel.
Copyright   : copyright 19941996 Jos Buivenga
</metadata>
<defs>
<font id="webfontOI5fBmUD" horiz-adv-x="921" >
<font-face units-per-em="2048" ascent="1638" descent="-410" />
<missing-glyph horiz-adv-x="614" />
<glyph unicode=" "  horiz-adv-x="614" />
<glyph unicode="&#x09;" horiz-adv-x="614" />
<glyph unicode="&#xa0;" horiz-adv-x="614" />
<glyph unicode="!" horiz-adv-x="540" d="M291 -29q-70 0 -123 43t-53 109q0 68 56 114t130 46q72 0 125 -43t53 -108.5t-57 -113t-131 -47.5zM428 410h-258l-13 192q-9 131 -13.5 226.5t-4.5 193.5q0 262 39 381l305 37q-55 -254 -55 -430v-600z" />
<glyph unicode="&#x22;" horiz-adv-x="708" d="M580 973l-195 -2v403l51 99h154l45 -168zM313 973h-196l-49 332l38 168h160l47 -99v-401z" />
<glyph unicode="#" horiz-adv-x="1138" d="M655 834h-145l-29 -216h146zM1061 1096l-25 -262h-118l-29 -216h88l-27 -262h-98l-47 -350h-258l45 350h-146l-43 -307h-258l39 307h-116l36 262h115l29 216h-96l36 262h95l43 321h264l-43 -321h143l37 278h264l-37 -278h107z" />
<glyph unicode="$" horiz-adv-x="888" d="M436 1067q-37 -6 -63.5 -36t-26.5 -68q0 -68 76 -119zM471 233q88 25 88 123q0 47 -72 105zM860 354q0 -168 -118.5 -271t-288.5 -114l-9 -121l-92 9l8 118q-158 27 -288 140l135 213q92 -70 172 -92l20 280l-106 70q-117 78 -181.5 161.5t-64.5 206.5q0 170 117 269.5 t291 97.5l8 113l92 -9l-8 -114q82 -18 164 -68.5t129 -116.5l-170 -151q-53 61 -142 86l-18 -270l117 -74q113 -74 173 -157t60 -206z" />
<glyph unicode="%" horiz-adv-x="1431" d="M1370 287q0 -131 -93 -224.5t-224 -93.5t-224.5 93.5t-93.5 224.5t93.5 224t224.5 93t224 -93t93 -224zM444 999.5q0 32.5 -22.5 55t-55 22.5t-55 -22.5t-22.5 -55t22.5 -55t55 -22.5t55 22.5t22.5 55zM1130 282.5q0 32.5 -22.5 55t-55 22.5t-55 -22.5t-22.5 -55 t22.5 -55t55 -22.5t55 22.5t22.5 55zM1272 1270l-885 -1272h-272l757 1081q-68 -45 -190 -45q2 -10 2 -30q0 -131 -93 -224.5t-224 -93.5t-224.5 93t-93.5 224.5t93.5 224.5t224.5 93q80 0 153 -39q4 -4 16 -11l17 -11q43 -20 145 -21q180 0 377 80z" />
<glyph unicode="&#x26;" horiz-adv-x="1290" d="M1245 35q-137 -66 -246 -66q-121 0 -183 77t-62 200v514h-195q-59 0 -100 -21.5t-61.5 -47t-31 -80t-11.5 -86t-1 -97.5q0 -217 60 -217q10 0 71.5 45t122.5 45q35 0 70 -12v-191q-47 0 -80 -20.5t-49.5 -44t-51 -44t-83.5 -20.5q-94 0 -169 51.5t-117 132t-63.5 170 t-21.5 177.5q0 158 82 281.5t231 148.5q-53 18 -85.5 70.5t-32.5 111.5q0 143 122.5 224t272.5 81q166 0 290 -86t124 -246v-81h192v-244h-188v-463q0 -31 1 -42t12 -24.5t38 -13.5q41 0 74 19zM770 1004v36q0 78 -23.5 115t-95.5 37q-121 0 -121 -94t132 -94h108z" />
<glyph unicode="'" horiz-adv-x="425" d="M287 975h-158l-70 330l41 168h215l43 -168z" />
<glyph unicode="(" horiz-adv-x="688" d="M653 -61l-45 -238q-145 106 -242.5 199.5t-177 209t-116.5 255t-37 311.5q0 293 159.5 526.5t432.5 396.5l37 -239q-172 -119 -268.5 -300t-96.5 -388q0 -444 354 -733z" />
<glyph unicode=")" horiz-adv-x="694" d="M657 676q0 293 -159.5 526.5t-431.5 396.5l-37 -239q172 -119 268 -300t96 -388q0 -444 -354 -733l45 -238q197 143 313.5 268t188 302.5t71.5 404.5z" />
<glyph unicode="*" horiz-adv-x="868" d="M829 1053l-211 -82l220 -293h-316l-98 180l-92 -180h-299l194 293l-209 82l41 268l240 -141l-82 229h412l-82 -229l244 141z" />
<glyph unicode="+" horiz-adv-x="964" d="M920 391h-308v-301h-262v301h-305v242h305v299h262v-299h308v-242z" />
<glyph unicode="," horiz-adv-x="528" d="M481 100q-154 -289 -309 -428l-145 99q115 152 114 247q0 18 -16 156q90 68 162 68q45 0 101 -46.5t93 -95.5z" />
<glyph unicode="-" horiz-adv-x="618" d="M565 408h-520v227h520v-227z" />
<glyph unicode="." horiz-adv-x="528" d="M256 -31q-70 0 -123 46t-53 116q0 72 56.5 122t129.5 50q70 0 123 -46t53 -116q0 -72 -56 -122t-130 -50z" />
<glyph unicode="/" horiz-adv-x="729" d="M285 -289h-277l443 1825h276z" />
<glyph unicode="0" d="M461 -31q-207 0 -311.5 152.5t-104.5 380t104.5 380t311.5 152.5t311.5 -152.5t104.5 -380t-104.5 -380t-311.5 -152.5zM460.5 782q-143.5 0 -143.5 -280q0 -283 144 -283q68 0 105.5 73t37.5 210q0 280 -143.5 280z" />
<glyph unicode="1" d="M360 0v737h-202v219q111 0 276 48h219v-1004h-293z" />
<glyph unicode="2" d="M117 0l-43 193q143 92 306 249.5t163 268.5q0 37 -29 54t-68 17q-72 0 -153.5 -32.5t-140.5 -79.5l-68 219q68 68 176.5 106.5t208.5 38.5q164 0 268.5 -78.5t104.5 -238.5q0 -127 -99.5 -248t-234.5 -215h360v-254h-751z" />
<glyph unicode="3" d="M143 -342h-53v209q72 2 148.5 19.5t151.5 50t123 94t48 139.5q0 39 -17.5 64.5t-51 36t-61.5 13.5t-66 3q-119 0 -238 -13v228l129 10q188 102 254 166q33 33 33 70q0 45 -49 45q-72 0 -308 -107l-71 203q92 55 208.5 99t198.5 44q131 0 222.5 -69.5t91.5 -194.5 q0 -88 -59.5 -165t-143.5 -116q96 -23 160.5 -102.5t64.5 -175.5q0 -147 -61.5 -258t-166 -172.5t-227.5 -91t-260 -29.5z" />
<glyph unicode="4" d="M881 0h-82v-283h-283v283h-461l-12 201q188 414 489 803h271v-750h78v-254zM512 254v348q-20 -25 -98 -164t-95 -184h193z" />
<glyph unicode="5" d="M856 211q0 -176 -106.5 -305t-260 -187.5t-325.5 -56.5h-82v205q106 0 208.5 27.5t185.5 102.5t83 185q0 51 -41 79t-96 28q-145 0 -307 -45l90 760h596v-252h-355l-20 -240q47 10 88 10q145 0 243.5 -84t98.5 -227z" />
<glyph unicode="6" d="M483 -31q-147 0 -246.5 89t-138.5 212t-39 267q0 147 52.5 274t148.5 223t205.5 167t249.5 134l108 -182q-295 -176 -405 -350q90 37 135 37q150 0 241 -111t91 -262q0 -215 -98.5 -356.5t-303.5 -141.5zM471 612q-39 0 -113 -28q-8 -53 -8 -84q0 -90 31 -185.5 t102 -95.5q121 0 121 242q0 151 -133 151z" />
<glyph unicode="7" d="M379 -369l-234 140q160 217 282 482t140 492h-489v259h762v-148q0 -276 -136.5 -631.5t-324.5 -593.5z" />
<glyph unicode="8" d="M446 549q-121 -90 -120 -176q0 -63 40 -112.5t101 -49.5q63 0 100 46t37 112q0 82 -158 180zM455 797q111 72 110 153q0 109 -110 109q-100 0 -101 -127q1 -72 101 -135zM901 377q0 -188 -130 -298t-322 -110q-168 0 -293 108.5t-125 274.5q0 178 219 320 q-184 129 -184 266q0 166 119.5 259t289.5 93q164 0 269.5 -89t105.5 -251q0 -133 -188 -260q113 -59 176 -131.5t63 -181.5z" />
<glyph unicode="9" d="M870 467q0 -500 -673 -807l-95 193q299 158 410 348q-84 -37 -135 -37q-150 0 -241 110.5t-91 262.5q0 215 98.5 356t302.5 141q147 0 247 -89t138.5 -212t38.5 -266zM580 504q0 90 -31 184t-103 94q-41 0 -66.5 -23.5t-35.5 -67.5t-12 -72.5t-2 -75.5q0 -74 28.5 -113 t100.5 -39q39 0 112 29q9 53 9 84z" />
<glyph unicode=":" horiz-adv-x="528" d="M256 -31q-70 0 -123 46t-53 116q0 72 56.5 122t129.5 50q70 0 123 -46t53 -116q0 -72 -56 -122t-130 -50zM256 559q-70 0 -123 46t-53 116q0 74 56.5 124t129.5 50q70 0 123 -46t53 -116q0 -74 -56 -124t-130 -50z" />
<glyph unicode=";" horiz-adv-x="528" d="M475 100q-154 -289 -309 -428l-146 99q115 145 115 247q0 18 -16 156q90 68 162 68q47 0 102 -45.5t92 -96.5zM270 557q-70 0 -123 46t-53 116q0 74 56.5 124t130.5 50q70 0 123 -46t53 -116q0 -74 -56.5 -124t-130.5 -50z" />
<glyph unicode="&#x3c;" horiz-adv-x="614" d="M387 80l-354 432l352 432l207 -168l-199 -262l201 -270z" />
<glyph unicode="=" horiz-adv-x="983" d="M928 545h-893v219h893v-219zM928 248h-893v219h893v-219z" />
<glyph unicode="&#x3e;" horiz-adv-x="614" d="M592 512l-352 432l-207 -168l198 -262l-200 -270l207 -164z" />
<glyph unicode="?" horiz-adv-x="733" d="M256 -29q-70 0 -123 43t-53 108.5t56.5 113t129.5 47.5q70 0 123 -43t53 -108.5t-57 -113t-129 -47.5zM719 1120q0 -119 -113 -241l-127 -138q-92 -98 -92 -221v-110h-250v110q0 121 17.5 193.5t83.5 140.5l106 111q86 90 86 151q0 29 -15.5 43.5t-31.5 16.5t-49 2 q-90 0 -187 -27v227q188 43 277 43q137 0 216 -82t79 -219z" />
<glyph unicode="@" horiz-adv-x="1622" d="M948 1004l8 51h222l-66 -424q-2 -10 -5 -27.5t-5 -32t-2 -26.5q0 -45 43 -45q68 0 114 118.5t46 206.5q0 207 -132.5 310.5t-343.5 103.5q-205 0 -352 -154.5t-147 -361.5q0 -240 169 -379t414 -139q154 0 259.5 44t236.5 150l113 -141q-160 -147 -314.5 -218t-355.5 -71 q-324 0 -561.5 216t-237.5 536q0 311 236.5 535.5t550.5 224.5q195 0 357.5 -71t266 -215t103.5 -339q0 -180 -152.5 -348t-322.5 -168q-82 0 -127 35t-74 104q-147 -121 -242 -121q-109 0 -159 79t-50 196q0 182 85 316t251 134q94 1 174 -79zM797 868q-125 0 -125 -211 q0 -78 39 -77q29 0 54.5 6t34.5 10t43 21.5t40 21.5l28 186q-85 43 -114 43z" />
<glyph unicode="A" horiz-adv-x="1044" d="M1036 0h-317l-66 266h-258l-65 -266h-318l361 1290h301zM621 506l-97 393l-96 -393h193z" />
<glyph unicode="B" horiz-adv-x="1028" d="M1001 401q0 -207 -149.5 -319.5t-362.5 -112.5q-111 0 -380 62v1259h413q182 0 296 -84t114 -260q0 -74 -49 -151.5t-119 -96.5q102 -16 169.5 -104.5t67.5 -192.5zM631 918q0 117 -109 116h-108v-258h67q150 1 150 142zM696 401q0 39 -13 68t-32.5 43t-51.5 21.5 t-56.5 9.5t-61.5 2h-67v-318q66 -14 71 -14q96 0 153.5 47t57.5 141z" />
<glyph unicode="C" horiz-adv-x="1017" d="M991 98q-72 -59 -178 -94t-205 -35q-139 0 -246.5 57.5t-170 155t-94 214t-31.5 249.5q0 168 59 318.5t187 254t300 103.5q90 0 190.5 -24.5t162.5 -73.5l-113 -205q-94 47 -240 47q-82 0 -140 -81t-79.5 -174t-21.5 -173q0 -70 9 -133.5t33.5 -130t77 -106.5t125.5 -40 q129 0 242 74z" />
<glyph unicode="D" horiz-adv-x="1120" d="M1059 651q0 -170 -57.5 -314t-183.5 -240.5t-300 -96.5h-409v1290h428q272 0 397 -177t125 -462zM752 639q0 76 -6.5 131t-26 121.5t-68.5 103.5t-123 37h-116v-774h106q70 0 118 37t71.5 98.5t34 120.5t10.5 125z" />
<glyph unicode="E" horiz-adv-x="929" d="M877 0h-771v1290h748v-262h-442v-225h340v-266h-340v-271h465v-266z" />
<glyph unicode="F" horiz-adv-x="843" d="M799 1028h-389v-225h307v-266h-307v-537h-306v1290h695v-262z" />
<glyph unicode="G" horiz-adv-x="1073" d="M1014 1194l-117 -201q-137 72 -287 72q-82 0 -141 -81t-81.5 -174t-22.5 -173q0 -70 10 -134.5t35.5 -130t78 -105.5t125.5 -40q72 0 97 9v395h293v-588q-162 -74 -394 -74q-139 0 -247.5 56.5t-173 152.5t-97.5 215t-33 252q0 170 59.5 320.5t188.5 252t303 101.5 q102 0 216 -33t188 -92z" />
<glyph unicode="H" horiz-adv-x="1122" d="M1012 0h-305v539h-291v-539h-305v1290h305v-487h291v487h305v-1290z" />
<glyph unicode="I" horiz-adv-x="487" d="M395 0h-303v1290h303v-1290z" />
<glyph unicode="J" horiz-adv-x="501" d="M403 -4q0 -74 -29.5 -131.5t-87 -95t-111.5 -60t-130 -45.5l-74 211q49 16 90 52t41 79v1284h301v-1294z" />
<glyph unicode="K" horiz-adv-x="993" d="M983 0h-264l-303 440v-440h-305v1290h305v-438l235 438h342l-389 -649l379 -504v-137z" />
<glyph unicode="L" horiz-adv-x="782" d="M766 0h-662v1290h297v-1028h365v-262z" />
<glyph unicode="M" horiz-adv-x="1519" d="M1409 0h-305v565l16 156l-243 -721h-236l-244 721l19 -156v-565h-305v1290h331l287 -784q20 -55 31 -135q10 80 31 135l284 784h334v-1290z" />
<glyph unicode="N" horiz-adv-x="1134" d="M1024 0h-281l-344 764q16 -82 17 -166v-598h-305v1290h329l224 -508q37 -80 55 -176v684h305v-1290z" />
<glyph unicode="O" horiz-adv-x="1122" d="M1061 645q0 -115 -26.5 -227.5t-82 -216t-157 -168t-234.5 -64.5t-234.5 64.5t-156.5 168t-82 216t-27 227.5t27 227.5t82 216t156.5 168t234.5 64.5t234.5 -64.5t157 -168t82 -216t26.5 -227.5zM756 645q0 66 -2 113t-13.5 107.5t-32 99.5t-57.5 66.5t-90 27.5 t-90 -27.5t-57.5 -66.5t-31.5 -99.5t-13 -107.5t-2 -112.5t2 -113t13 -109t31.5 -99t57.5 -65.5t90 -28t90 28t57.5 67t32 100t13.5 108.5t2 110.5z" />
<glyph unicode="P" horiz-adv-x="1001" d="M977 866q0 -186 -133 -319t-320 -133q-66 0 -112 28v-442h-306v1290h340q238 0 384.5 -98.5t146.5 -325.5zM672 868q0 96 -56.5 131t-158.5 35h-45v-346q61 -25 82 -24q178 -1 178 204z" />
<glyph unicode="Q" horiz-adv-x="1122" d="M1061 -31l-45 -288q-20 -4 -60 -5q-156 0 -261 75t-206 222q-113 16 -198.5 85t-133.5 166.5t-72 204t-24 216.5q0 121 29 235.5t85 216t156.5 163t229.5 61.5t229.5 -61.5t157 -163t85 -216t28.5 -235.5q0 -199 -76 -379t-231 -256q63 -72 139 -71q72 -1 168 30z M756 645q0 49 -1 80t-6.5 87t-17.5 93t-32.5 76t-55.5 58.5t-82 19.5t-82 -19.5t-55.5 -58.5t-32.5 -76t-17 -93t-6 -87t-1 -80t1 -79.5t6 -87t17 -93.5t32.5 -76t55.5 -58.5t82 -19.5q55 0 94 32t58.5 73t30 107.5t11.5 104.5t1 97z" />
<glyph unicode="R" horiz-adv-x="1034" d="M1001 0h-256l-329 451v-451h-305v1290h338q152 0 265 -36.5t190 -135t77 -252.5q0 -125 -67.5 -230.5t-182.5 -148.5l270 -350v-137zM672 868q0 88 -43 127t-133 39h-80v-352q47 -14 76 -14q84 0 132 57t48 143z" />
<glyph unicode="S" horiz-adv-x="888" d="M860 354q0 -176 -128 -280.5t-308 -104.5q-84 0 -182.5 42t-169.5 104l135 213q137 -100 219 -101q59 0 96 35t37 94q0 37 -38 74t-95 68.5t-122.5 77t-123 93.5t-95.5 122.5t-38 162.5q0 168 116 267.5t288 99.5q106 0 214.5 -54.5t174.5 -140.5l-170 -151 q-37 41 -95.5 68.5t-113.5 27.5q-45 0 -80 -31.5t-35 -76.5q0 -53 53.5 -98.5t128 -85.5t150.5 -90t129 -136t53 -199z" />
<glyph unicode="T" horiz-adv-x="829" d="M809 1022h-244v-1022h-303l2 1022h-241v268h786v-268z" />
<glyph unicode="U" horiz-adv-x="1142" d="M1034 514q0 -104 -23.5 -195.5t-73.5 -172t-144.5 -129t-221.5 -48.5t-221 48.5t-144 129t-73.5 172t-23.5 195.5v776h305v-776q0 -147 37.5 -215t119.5 -68t120 68t38 215v776h305v-776z" />
<glyph unicode="V" horiz-adv-x="1044" d="M1040 1290l-364 -1290h-301l-365 1290h328l158 -696q14 -59 30 -182q18 129 31 182l158 696h325z" />
<glyph unicode="W" horiz-adv-x="1449" d="M1438 1290l-250 -1290h-305l-138 690l-20 137q-10 -90 -20 -137l-138 -690h-305l-250 1290h312l82 -585l22 -209q10 139 27 209l133 585h274l133 -585l31 -205q8 133 18 205l82 585h312z" />
<glyph unicode="X" horiz-adv-x="1007" d="M997 0h-354l-149 399l-142 -399h-342l299 664l-289 626h342l130 -364l131 364h331l-274 -626z" />
<glyph unicode="Y" horiz-adv-x="964" d="M961 1290l-326 -807v-483h-305l2 483l-328 807h326l151 -502l154 502h326z" />
<glyph unicode="Z" horiz-adv-x="937" d="M905 0h-874v211q193 375 450 813h-409v266h794v-215q-262 -428 -467 -807h506v-268z" />
<glyph unicode="[" horiz-adv-x="507" d="M451 -319h-394v1816h394v-250h-123v-1317h123v-249z" />
<glyph unicode="\" horiz-adv-x="686" d="M678 -289h-277l-391 1825h277z" />
<glyph unicode="]" horiz-adv-x="509" d="M451 -319v1816h-394v-250h123v-1317h-123v-249h394z" />
<glyph unicode="^" horiz-adv-x="1277" d="M1188 643h-309l-242 469l-246 -469h-307l453 819h198z" />
<glyph unicode="_" d="M922 -338h-922v246h922v-246z" />
<glyph unicode="`" horiz-adv-x="692" d="M575 1276l-114 -174q-221 121 -422 291l205 202q163 -192 331 -319z" />
<glyph unicode="a" horiz-adv-x="954" d="M936 12q-86 -43 -158 -43q-78 0 -123 45t-55 117q-27 -74 -98.5 -118t-151.5 -44q-313 0 -313 305q0 82 74 218l450 180v43q0 39 -34.5 60.5t-75.5 21.5q-127 0 -248 -95l-105 168q76 72 179.5 118t201.5 46q158 0 258.5 -75.5t100.5 -227.5v-534q0 -53 24 -54q12 0 29 9 zM567 477l-233 -96q-18 -55 -19 -102q0 -31 23.5 -51.5t56.5 -20.5q84 0 128 63.5t44 151.5v55z" />
<glyph unicode="b" horiz-adv-x="1030" d="M516 -31q-193 0 -399 146v1308h297v-493q100 104 190 104q182 0 283.5 -142t101.5 -331q0 -117 -26.5 -220t-81 -188t-148.5 -134.5t-217 -49.5zM557 788q-74 0 -143 -104v-434q53 -37 110 -37q164 0 164 328q0 247 -131 247z" />
<glyph unicode="c" horiz-adv-x="843" d="M831 109q-68 -59 -160.5 -99.5t-176.5 -40.5q-205 0 -327 157t-122 368q0 217 122 378.5t333 161.5q80 0 166 -34.5t145 -90.5l-133 -174q-70 55 -176 56q-55 0 -93 -53.5t-52.5 -114t-14.5 -113.5q0 -55 14.5 -119.5t54.5 -122t97 -57.5q109 0 217 88z" />
<glyph unicode="d" horiz-adv-x="1048" d="M639 483v279q-63 29 -139 29q-37 0 -63.5 -13.5t-42 -42t-25 -52.5t-12.5 -69t-4 -63.5t-1 -61.5q0 -274 133 -274q57 0 94 50t48.5 105.5t11.5 112.5zM991 145l-61 -176q-12 0 -32.5 -1t-33.5 -1q-61 0 -109 36t-67 106q-25 -59 -92.5 -100.5t-134.5 -41.5 q-193 0 -302.5 152.5t-109.5 351.5q0 117 22.5 213t72 177t137.5 127t211 46q63 0 147 -30v419h297v-1185q0 -27 2 -44.5t15 -33t38 -15.5z" />
<glyph unicode="e" horiz-adv-x="964" d="M930 475h-584q-2 -10 -2 -33q0 -86 38 -157.5t118 -71.5q162 0 282 88l86 -184q-76 -63 -182 -106.5t-197 -43.5q-150 0 -253 84t-146 206t-43 267q0 211 135 360.5t344 149.5q162 0 279 -116.5t121 -278.5q4 -111 4 -164zM651 664q-2 68 -39 121t-100 53 q-57 0 -98 -56.5t-47 -117.5h284z" />
<glyph unicode="f" horiz-adv-x="585" d="M580 1235q-6 -2 -17.5 -4t-40 -13.5t-50 -26.5t-40 -43t-18.5 -63v-81h153v-240h-153v-764h-297v774l-101 17v213h101v94q0 96 43 167.5t104.5 104.5t123 52.5t104.5 21.5l43 2z" />
<glyph unicode="g" horiz-adv-x="931" d="M799 813q41 -72 41 -164q0 -127 -82 -214t-207 -111q-4 0 -31.5 -4.5t-44 -8.5t-39 -12t-34 -21.5t-11.5 -29.5q0 -8 7.5 -15.5t19.5 -10.5l25 -6q13 -3 33 -3h32h30h21h66q125 0 204.5 -54.5t79.5 -172.5q0 -182 -148.5 -287t-334.5 -105q-68 0 -132.5 14.5t-124.5 45.5 t-96 89t-36 136q0 61 56.5 118.5t119.5 80.5q-45 12 -80 51t-35 86q0 82 138 160q-74 35 -123.5 119t-49.5 159q0 172 112 276.5t292 104.5q98 0 176 -30h252v-216zM520 6h-108q-90 -55 -90 -98q0 -88 112 -88q82 0 140.5 43t58.5 108q0 8 -4 14.5t-12.5 10.5t-15.5 6 t-20.5 3t-20.5 1h-21h-19zM454.5 809q-98.5 0 -98.5 -135q0 -147 103 -148q94 0 94 138q0 145 -98.5 145z" />
<glyph unicode="h" horiz-adv-x="1062" d="M657 0v725q0 63 -51 63q-33 0 -64.5 -9t-47 -17t-47.5 -30l-37 -25v-707h-297v1423h297v-493q147 104 233 104q94 0 158.5 -26.5t96.5 -73.5t44 -96.5t12 -112.5v-725h-297z" />
<glyph unicode="i" horiz-adv-x="487" d="M96 0v1004h293v-1004h-293zM240 1106q-72 0 -125.5 46t-53.5 116q0 72 57.5 123t129 51t125 -47t53.5 -117q0 -74 -56 -123t-130 -49z" />
<glyph unicode="j" horiz-adv-x="487" d="M29 -401l-64 208q82 37 107.5 67t25.5 79v1051h293v-1065q0 -80 -31.5 -139.5t-93 -98.5t-111.5 -59t-126 -43zM240 1106q-72 0 -125.5 46t-53.5 116q0 72 57.5 123t129 51t125 -47t53.5 -117q0 -74 -56 -123t-130 -49z" />
<glyph unicode="k" horiz-adv-x="964" d="M692 0l-280 379v-379h-297v1423h297v-673l198 254h334l-352 -429l362 -446v-129h-262z" />
<glyph unicode="l" horiz-adv-x="483" d="M154 0q-70 158 -70 436v987h293v-987q0 -117 16.5 -225.5t32.5 -159.5l14 -51h-286z" />
<glyph unicode="m" horiz-adv-x="1579" d="M1174 0v711q0 80 -52 80q-45 0 -90 -16.5t-67 -33.5l-23 -18v-723h-297v705q0 49 -11 66t-38 17q-35 0 -67.5 -10t-46 -18t-41 -29.5t-29.5 -23.5v-707h-297v1006h297v-76q135 104 235 104q160 0 230 -96l6 -8q156 104 256 104q332 0 331 -303v-731h-296z" />
<glyph unicode="n" horiz-adv-x="1062" d="M657 0v725q0 63 -51 63q-33 0 -64.5 -9t-47 -17t-47.5 -30l-37 -25v-707h-297v1004h297v-74q147 104 233 104q94 0 158.5 -26.5t96.5 -73.5t44 -96.5t12 -112.5v-725h-297z" />
<glyph unicode="o" horiz-adv-x="999" d="M499.5 -31q-147.5 0 -254 86t-151.5 203t-45 244t45 243.5t151.5 202.5t254 86t254 -86t151.5 -202.5t45 -243.5t-45 -244t-151.5 -203t-254 -86zM499.5 786q-71.5 0 -112.5 -75.5t-41 -208.5t41 -210t112.5 -77t112.5 77t41 210t-41 208.5t-112.5 75.5z" />
<glyph unicode="p" horiz-adv-x="1056" d="M580 -31q-94 0 -168 72v-399h-299v1362h299l-2 -74q12 12 31.5 29.5t75.5 46t106 28.5q125 0 216 -82t129 -191.5t38 -223.5q0 -98 -18.5 -187.5t-61.5 -180.5t-132 -145.5t-214 -54.5zM571 788q-29 0 -56.5 -10t-36.5 -15t-36.5 -30.5t-29.5 -27.5v-220q0 -276 159 -276 q33 0 56.5 15.5t38 47t22.5 58t11 73t3 62.5v55q0 268 -131 268z" />
<glyph unicode="q" horiz-adv-x="1054" d="M641 -358v405q-84 -78 -168 -78q-150 0 -250 77t-138 182.5t-38 230.5q0 94 25.5 190t77 184.5t143.5 144.5t209 56q78 0 187.5 -21.5t178.5 -41.5l72 -23v-1306h-299zM641 774q-74 18 -116 18q-12 0 -21 -1q-47 -8 -80 -42t-48.5 -83.5t-21.5 -93.5t-6 -91 q0 -272 133 -272q61 0 99 52t49.5 108.5t11.5 111.5v293z" />
<glyph unicode="r" horiz-adv-x="653" d="M614 713q-72 31 -129 30q-23 0 -43 -7t-28 -15l-8 -8v-713h-297v1004h299v-74q88 104 139 104q27 0 53.5 -7t38.5 -15l14 -8z" />
<glyph unicode="s" horiz-adv-x="858" d="M422 -31q-74 0 -160 36t-135 71l-51 35l108 198q162 -104 244 -104q113 0 113 74q0 43 -80 79q-29 14 -110 49t-118.5 56.5t-90 61.5t-73.5 91q-20 47 -20 106v11q4 123 107.5 212t289.5 89q106 0 197.5 -43t130.5 -86l37 -43l-156 -143q-111 84 -213 84q-98 0 -98 -58 q0 -12 5 -22t18.5 -19.5t20.5 -13.5t30 -14l96 -43q74 -33 103.5 -47.5t84 -50t77 -68.5t39.5 -84q14 -41 14 -90q0 -11 -1 -23q-14 -178 -186 -256q-94 -45 -223 -45z" />
<glyph unicode="t" horiz-adv-x="626" d="M496 -14q-49 -16 -127 -17q-127 0 -186.5 80t-59.5 195v524l-88 23v213h96v180h285v-180h168v-236h-164v-475q0 -61 33 -72q16 -6 32 -6q32 0 68 21l63 -203q-87 -37 -120 -47z" />
<glyph unicode="u" horiz-adv-x="1062" d="M909 -31q-121 14 -194 119q-162 -119 -287 -119q-317 0 -317 305v730h297v-730q0 -35 15 -48t50 -13q66 0 182 80v711h297v-795q0 -51 52 -84z" />
<glyph unicode="v" horiz-adv-x="925" d="M567 0h-213l-338 1004h322l135 -586q96 285 127 586h315q-141 -582 -348 -1004z" />
<glyph unicode="w" horiz-adv-x="1372" d="M1079 0h-262q-100 324 -127 504q-20 -143 -125 -504h-276l-273 1004h314q92 -457 92 -586l135 586h270l138 -586q84 344 84 586h307q-66 -555 -277 -1004z" />
<glyph unicode="x" horiz-adv-x="868" d="M530 0l-98 262l-104 -262h-324l275 518l-269 486h330l92 -216l96 216h326l-270 -476l280 -528h-334z" />
<glyph unicode="y" horiz-adv-x="929" d="M483 346q78 283 125 658h305q-29 -154 -70.5 -323t-106 -380t-152.5 -376t-181 -226q-37 -25 -96 -46.5t-102 -29.5l-41 -10l-68 217q72 25 113 50.5t57.5 46t46.5 73.5l13 20l-308 984h316q137 -459 149 -658z" />
<glyph unicode="z" horiz-adv-x="872" d="M827 0h-776v197q154 283 357 553h-324v254h709v-209q-217 -270 -371 -541h405v-254z" />
<glyph unicode="{" horiz-adv-x="681" d="M598 -332h-70h-69q-268 0 -269 312v339q0 80 -43 121t-116 41v215q74 0 116.5 40t42.5 120v340q0 313 265 313h141l51 -227h-119q-43 0 -56 -20.5t-13 -75.5v-357q0 -131 -127 -243q127 -113 127 -240v-356q0 -55 13 -74.5t56 -19.5h121z" />
<glyph unicode="|" horiz-adv-x="454" d="M94 -29v1569h266v-1569h-266z" />
<glyph unicode="}" horiz-adv-x="681" d="M82 -332h70h69q270 0 271 312v339q0 80 41.5 121t115.5 41v215q-74 0 -115.5 40t-41.5 120v340q0 313 -267 313h-141l-51 -227h119q43 0 57 -20.5t14 -75.5v-357q0 -133 125 -243q-125 -111 -125 -240v-356q0 -53 -14 -73.5t-57 -20.5h-121z" />
<glyph unicode="~" horiz-adv-x="1363" d="M897 430q-102 0 -239.5 66.5t-182.5 66.5q-74 0 -106.5 -16.5t-94.5 -83.5v209q10 16 27.5 39.5t71 62.5t104.5 39q92 0 229.5 -66.5t190.5 -66.5q41 0 90 28.5t78 57.5l27 27v-224q-8 -16 -24.5 -38.5t-67 -61.5t-103.5 -39z" />
<glyph unicode="&#xa1;" horiz-adv-x="540" d="M260 1004q72 0 125 -43t53 -107q0 -68 -57 -115t-131 -47q-70 0 -123 43t-53 109q0 68 56 114t130 46zM123 565h260l11 -194l12.5 -222.5t5.5 -195.5q0 -262 -39 -381l-303 -37q53 262 53 430v600z" />
<glyph unicode="&#xa2;" horiz-adv-x="843" d="M483 788q-53 -14 -97 -82.5t-44 -195.5q0 -115 41 -197t100 -98v573zM831 109q-113 -98 -256 -132v-129h-92v121q-176 2 -303 142q-135 150 -135 383q0 221 109 364q66 82 153.5 127t175.5 49v135h92v-141q74 -10 132.5 -42t80.5 -58l23 -27l-145 -158q-31 25 -91 39 v-561q82 23 150 78z" />
<glyph unicode="&#xa3;" horiz-adv-x="905" d="M510 -23l-102 23h-375q88 422 88 532v154l-96 41l96 195v198q0 109 67.5 180.5t149.5 95t170 23.5q166 0 291 -100l-82 -211q-119 66 -197 66q-53 0 -77.5 -17.5t-24.5 -62.5v-172h260v-252h-260v-148q0 -96 -29 -268h55q70 -16 99 -31q160 -49 274 111l60 -211 q-2 -4 -9 -10l-25 -27q-19 -20 -40 -35.5t-54.5 -36t-67.5 -29t-80 -15.5t-91 7z" />
<glyph unicode="&#xa4;" horiz-adv-x="1110" d="M1059 1014q-90 90 -148.5 118.5t-142.5 28.5q-217 0 -285 -211h547l-102 -219h-479q-4 -16 -5 -78h447l-105 -219h-305q55 -207 267 -207q53 0 83.5 8.5t91 55.5t144.5 145v-321q-90 -80 -152.5 -110t-177.5 -30q-211 0 -362.5 123t-192.5 338h-194l98 217h68v37l2 41 h-156l104 219h80q43 205 200 334t394 129q125 0 213 -40t180 -124z" />
<glyph unicode="&#xa5;" horiz-adv-x="974" d="M41 850h141l-178 440h330l153 -502l152 502h322l-179 -440h158v-232h-252l-47 -116h299v-232h-305v-270h-303v270h-291v232h283l-48 116h-235v232z" />
<glyph unicode="&#xa7;" horiz-adv-x="860" d="M637 285q74 -25 122 -83.5t48 -125.5q0 -164 -112.5 -261.5t-295.5 -97.5q-100 0 -182 27t-197 96l111 207q137 -76 275 -76q51 0 81.5 22.5t34.5 57.5q2 16 -17.5 35.5t-56 40t-68.5 35.5l-76 33q-44 18 -56 24q-104 51 -163.5 113.5t-59.5 159.5q0 92 55 172.5 t143 105.5q-68 16 -129 79.5t-61 137.5q0 154 113.5 244t283.5 90t350 -109l-110 -196q-8 8 -26.5 18t-81 25.5t-136.5 11.5q-98 -6 -98 -78q0 -8 10 -19t29 -22l39 -21q20 -11 42.5 -21.5t39.5 -17.5l32 -13l17 -7q55 -27 97 -52t87 -63t69.5 -85t24.5 -103 q0 -90 -50 -172.5t-128 -111.5zM442 633q-92 0 -130 -36t-33 -91q2 -31 35.5 -55.5t80.5 -24.5q100 0 135 35t33 94q0 29 -33 53.5t-88 24.5z" />
<glyph unicode="&#xa8;" horiz-adv-x="786" d="M358 1223q-18 -49 -61 -79t-94 -30q-66 0 -113 47t-47 115q0 72 50 122t118 50q66 0 113 -47t47 -115q-1 -32 -13 -63zM725 1223q-20 -49 -63.5 -79t-92.5 -30q-66 0 -112.5 47t-46.5 115q0 72 50 122t118 50q63 0 111 -47t48 -115q0 -32 -12 -63z" />
<glyph unicode="&#xa9;" horiz-adv-x="1800" d="M1057 635l-17 12q-8 6 -17 10.5l-15.5 7.5t-15.5 4t-14 3t-16 2h-15h-15h-14q-33 0 -71 -39t-38 -123q0 -80 31.5 -130t87.5 -50q82 0 162 65l96 -155q-14 -14 -40 -35t-95.5 -54.5t-128.5 -33.5q-158 0 -260.5 102.5t-102.5 292.5q0 158 96.5 266.5t259.5 108.5 q66 0 131.5 -29t98.5 -57l33 -31zM242 500q0 178 86 329q86 150 243 240q164 88 328 88q170 0 328 -88q162 -94 243 -240q86 -152 86 -329q0 -184 -90 -334q-96 -160 -243 -240q-150 -86 -324 -86t-324 86q-147 80 -241 240q-92 160 -92 334zM1393 500q0 131 -66 245 q-41 76 -110 132q-59 55 -148 88q-92 31 -170 30q-131 0 -248 -67q-115 -68 -180 -182.5t-65 -245.5q0 -135 65 -254q70 -117 182 -180q111 -61 246 -64h6q127 0 242 66.5t180.5 177.5t65.5 254z" />
<glyph unicode="&#xaa;" horiz-adv-x="774" d="M723 750q-70 -33 -121 -33q-57 0 -93 33.5t-42 89.5q-20 -55 -74.5 -89t-116.5 -34q-238 0 -237 231q0 63 55 166l342 137v33q0 29 -26.5 45.5t-57.5 16.5q-94 0 -186 -72l-80 127q55 55 134 90t155 35q119 0 195.5 -57.5t76.5 -174.5v-405q0 -39 19 -39q14 0 22 6z M442 1102l-178 -72q-14 -43 -14 -78q0 -25 18.5 -40t42.5 -15q63 0 97 49t34 115v41z" />
<glyph unicode="&#xab;" horiz-adv-x="1024" d="M354 80l-282 432l280 432l207 -168l-147 -266l149 -266zM760 80l-242 430l240 434l207 -168l-127 -262l129 -270z" />
<glyph unicode="&#xac;" horiz-adv-x="1095" d="M709 303v365h-658v233h922v-545z" />
<glyph unicode="&#xad;" horiz-adv-x="618" d="M565 408h-520v227h520v-227z" />
<glyph unicode="&#xae;" horiz-adv-x="1800" d="M242 500q0 178 86 329q86 150 243 240q164 88 328 88q170 0 328 -88q162 -94 243 -240q86 -152 86 -329q0 -184 -90 -334q-96 -160 -243 -240q-150 -86 -324 -86t-324 86q-147 80 -241 240q-92 160 -92 334zM1393 500q0 131 -66 245q-41 76 -110 132q-59 55 -148 88 q-92 31 -170 30q-131 0 -248 -67q-115 -68 -180 -182.5t-65 -245.5q0 -135 65 -254q70 -117 182 -180q111 -61 246 -64h6q127 0 242 66.5t180.5 177.5t65.5 254zM893 676v-141q6 -2 18 -3q61 0 62 80q0 66 -64 66zM883 301l10 -172h-242v760h219q139 0 230.5 -64.5 t91.5 -197.5q0 -70 -40 -142.5t-101 -89.5l151 -123v-143h-176q-14 14 -143 172z" />
<glyph unicode="&#xaf;" horiz-adv-x="686" d="M2 1143v182h680v-182h-680z" />
<glyph unicode="&#xb0;" horiz-adv-x="720" d="M672 1032q0 -129 -91.5 -220t-220.5 -91t-220 91t-91 218q0 129 91 220t220 91t220.5 -91t91.5 -218zM463 1034q0 43 -31 74t-74 31t-73.5 -31t-30.5 -74t30.5 -73.5t73.5 -30.5t74 30.5t31 73.5z" />
<glyph unicode="&#xb1;" horiz-adv-x="915" d="M586 487v-200h-262v200h-246v234h246v209h262v-209h243v-234h-243zM86 0v231h737v-231h-737z" />
<glyph unicode="&#xb2;" d="M117 0l-43 193q143 92 306 249.5t163 268.5q0 37 -29 54t-68 17q-72 0 -153.5 -32.5t-140.5 -79.5l-68 219q68 68 176.5 106.5t208.5 38.5q164 0 268.5 -78.5t104.5 -238.5q0 -127 -99.5 -248t-234.5 -215h360v-254h-751z" />
<glyph unicode="&#xb3;" d="M143 -342h-53v209q72 2 148.5 19.5t151.5 50t123 94t48 139.5q0 39 -17.5 64.5t-51 36t-61.5 13.5t-66 3q-119 0 -238 -13v228l129 10q188 102 254 166q33 33 33 70q0 45 -49 45q-72 0 -308 -107l-71 203q92 55 208.5 99t198.5 44q131 0 222.5 -69.5t91.5 -194.5 q0 -88 -59.5 -165t-143.5 -116q96 -23 160.5 -102.5t64.5 -175.5q0 -147 -61.5 -258t-166 -172.5t-227.5 -91t-260 -29.5z" />
<glyph unicode="&#xb4;" horiz-adv-x="692" d="M88 1284l115 -174q221 121 422 291l-205 203q-164 -193 -332 -320z" />
<glyph unicode="&#xb5;" horiz-adv-x="1062" d="M401 -135q0 -39 -10 -94.5t-18 -92.5l-11 -36h-335q66 113 102 219q33 90 33 213q-51 76 -51 200v730h297v-730q0 -35 15 -48t50 -13q66 0 182 80v711h297v-795q0 -51 52 -84l-95 -156q-121 14 -194 119q-162 -119 -287 -119l-61 11q34 -45 34 -115z" />
<glyph unicode="&#xb6;" horiz-adv-x="1112" d="M1042 1081l-81 -22q-6 -330 -80 -682t-215 -625l-269 103q147 258 229.5 573t88.5 625l-16 5q-9 3 -36.5 11t-53 11t-57.5 2t-54 -9q-55 -23 -73.5 -109.5t17 -165.5t115.5 -79h68q-10 -20 -28.5 -52t-81 -90.5t-132.5 -70.5t-129 8.5t-98 62t-67 98t-39 110t-11 100.5 q0 180 98.5 307t304.5 127q49 0 144.5 -16.5t126.5 -18.5l-8 86h249l4 -86l84 19v-222z" />
<glyph unicode="&#xb7;" horiz-adv-x="528" d="M256 356q-70 0 -123 47.5t-53 116.5q0 72 56.5 122t129.5 50q70 0 123 -46t53 -116q0 -72 -57 -123t-129 -51z" />
<glyph unicode="&#xb8;" horiz-adv-x="823" d="M473 -406l-168 132q193 66 201 110q6 39 -34 42t-83 -13l-41 -17v152h301q111 -70 111 -162q0 -144 -287 -244z" />
<glyph unicode="&#xb9;" d="M360 0v737h-202v219q111 0 276 48h219v-1004h-293z" />
<glyph unicode="&#xba;" horiz-adv-x="802" d="M405.5 715q-163.5 0 -253 125t-89.5 280q0 154 89.5 279t253 125t254 -125t90.5 -279q0 -156 -90.5 -280.5t-254 -124.5zM406 1335q-53 0 -85 -57t-32 -158q0 -102 31.5 -160.5t85.5 -58.5q55 0 85.5 58.5t30.5 161t-30.5 158.5t-85.5 56z" />
<glyph unicode="&#xbb;" horiz-adv-x="1024" d="M676 80l282 432l-280 432l-207 -168l147 -266l-149 -266zM270 80l242 430l-240 434l-206 -168l127 -262l-130 -270z" />
<glyph unicode="&#xbc;" horiz-adv-x="2537" d="M2497 0h-82v-283h-283v283h-461l-12 201q188 414 489 803h271v-750h78v-254zM2128 254v348q-20 -25 -98 -164t-95 -184h193zM988 -256h-289l868 1769h289zM360 0v737h-202v219q111 0 276 48h219v-1004h-293z" />
<glyph unicode="&#xbd;" horiz-adv-x="2537" d="M1733 0l-43 193q143 92 306 249.5t163 268.5q0 37 -29 54t-68 17q-72 0 -153.5 -32.5t-140.5 -79.5l-68 219q68 68 176.5 106.5t208.5 38.5q164 0 268.5 -78.5t104.5 -238.5q0 -127 -99.5 -248t-234.5 -215h360v-254h-751zM988 -256h-289l868 1769h289zM360 0v737h-202 v219q111 0 276 48h219v-1004h-293z" />
<glyph unicode="&#xbe;" horiz-adv-x="2537" d="M2497 0h-82v-283h-283v283h-461l-12 201q188 414 489 803h271v-750h78v-254zM2128 254v348q-20 -25 -98 -164t-95 -184h193zM988 -256h-289l868 1769h289zM143 -342h-53v209q72 2 148.5 19.5t151.5 50t123 94t48 139.5q0 39 -17.5 64.5t-51 36t-61.5 13.5t-66 3 q-119 0 -238 -13v228l129 10q188 102 254 166q33 33 33 70q0 45 -49 45q-72 0 -308 -107l-71 203q92 55 208.5 99t198.5 44q131 0 222.5 -69.5t91.5 -194.5q0 -88 -59.5 -165t-143.5 -116q96 -23 160.5 -102.5t64.5 -175.5q0 -147 -61.5 -258t-166 -172.5t-227.5 -91 t-260 -29.5z" />
<glyph unicode="&#xbf;" horiz-adv-x="733" d="M499.5 1032q71.5 0 125 -43t53.5 -108.5t-57.5 -112.5t-129 -47t-125 43t-53.5 108.5t57.5 112.5t129 47zM39 -117q0 125 111 242l129 137q90 96 90 221v111h249v-111q0 -121 -17 -193.5t-83 -139.5l-106 -111q-86 -90 -86 -152q0 -29 16 -43t32.5 -16t47.5 -2 q90 0 186 27v-228q-184 -43 -276 -43q-137 0 -215 82t-78 219z" />
<glyph unicode="&#xc0;" horiz-adv-x="1044" d="M1036 0h-317l-66 266h-258l-65 -266h-318l361 1290h301zM621 506l-97 393l-96 -393h193zM782 1528l-114 -174q-221 121 -422 291l205 202q163 -192 331 -319z" />
<glyph unicode="&#xc1;" horiz-adv-x="1044" d="M1036 0h-317l-66 266h-258l-65 -266h-318l361 1290h301zM621 506l-97 393l-96 -393h193zM264 1536l115 -174q221 121 422 291l-205 202q-164 -192 -332 -319z" />
<glyph unicode="&#xc2;" horiz-adv-x="1044" d="M1036 0h-317l-66 266h-258l-65 -266h-318l361 1290h301zM621 506l-97 393l-96 -393h193zM252 1358l-137 184l94 57q98 61 285 242q164 -164 284 -239l94 -58l-137 -186q-121 68 -241 188q-117 -116 -242 -188z" />
<glyph unicode="&#xc3;" horiz-adv-x="1044" d="M1036 0h-317l-66 266h-258l-65 -266h-318l361 1290h301zM621 506l-97 393l-96 -393h193zM635 1440q-55 0 -138 33.5t-120 33.5q-70 0 -144 -65l-104 149q78 72 126 97.5t128 25.5q68 0 154 -33.5t112 -33.5q57 0 127 67l117 -137l-26 -26q-22 -22 -26 -25l-26 -22 q-20 -17 -30 -22l-29 -17q-20 -11 -35.5 -14t-38 -7t-47.5 -4z" />
<glyph unicode="&#xc4;" horiz-adv-x="1044" d="M1036 0h-317l-66 266h-258l-65 -266h-318l361 1290h301zM621 506l-97 393l-96 -393h193zM489 1507q-20 -49 -63 -79.5t-94 -30.5q-66 0 -112 47t-46 115q0 72 50 122t118 50q63 0 110.5 -46.5t47.5 -115.5q-1 -31 -11 -62zM854 1507q-18 -49 -61 -79.5t-95 -30.5 q-66 0 -112.5 47t-46.5 115q0 72 50 122t118 50q66 0 112.5 -46.5t46.5 -115.5q0 -33 -12 -62z" />
<glyph unicode="&#xc5;" horiz-adv-x="1044" d="M1036 0h-317l-66 266h-258l-65 -266h-318l361 1290h301zM621 506l-97 393l-96 -393h193zM780 1595q0 -106 -74.5 -180t-179.5 -74q-106 0 -180 74t-74 180q0 104 74 179t180 75q104 0 179 -75t75 -179zM582 1595.5q0 22.5 -16.5 39t-39 16.5t-39 -16.5t-16.5 -39 t16.5 -39t39 -16.5t39 16.5t16.5 39z" />
<glyph unicode="&#xc6;" horiz-adv-x="1497" d="M1448 0h-688l-80 289h-270l-80 -289h-318l357 1290h307l98 -352v352h656v-262h-406v-225h295v-266h-295v-271h424v-266zM639 530l-94 369l-94 -369h188z" />
<glyph unicode="&#xc7;" horiz-adv-x="1017" d="M543 -406l-166 132q193 66 198 110q6 39 -33.5 42t-82.5 -13l-41 -17v152h2q-96 35 -167 105.5t-111 161.5t-58 185.5t-18 192.5q0 115 32.5 229.5t96 217t172 166t245.5 63.5q211 0 346 -94l7 -4l-113 -205q-96 47 -240 47q-43 0 -97 -39t-87 -106q-57 -106 -57 -283 q0 -68 9 -130.5t32.5 -130t76 -108.5t127.5 -41q131 0 242 74l133 -203q-94 -80 -248 -114q86 -63 86 -146q1 -144 -286 -244z" />
<glyph unicode="&#xc8;" horiz-adv-x="929" d="M877 0h-771v1290h748v-262h-442v-225h340v-266h-340v-271h465v-266zM752 1528l-115 -174q-215 117 -422 291l205 202q160 -192 332 -319z" />
<glyph unicode="&#xc9;" horiz-adv-x="929" d="M877 0h-771v1290h748v-262h-442v-225h340v-266h-340v-271h465v-266zM248 1536l114 -174q221 121 422 291l-204 202q-164 -192 -332 -319z" />
<glyph unicode="&#xca;" horiz-adv-x="929" d="M877 0h-771v1290h748v-262h-442v-225h340v-266h-340v-271h465v-266zM229 1358l-137 184l94 57q100 61 285 242q164 -164 285 -239l94 -58l-137 -186q-121 68 -242 188q-117 -116 -242 -188z" />
<glyph unicode="&#xcb;" horiz-adv-x="929" d="M877 0h-771v1290h748v-262h-442v-225h340v-266h-340v-271h465v-266zM455 1509q-20 -49 -63.5 -79.5t-92.5 -30.5q-66 0 -113 47t-47 115q0 72 50.5 122t117.5 50q63 0 111.5 -47.5t48.5 -114.5q0 -35 -12 -62zM821 1509q-20 -51 -63 -80.5t-94 -29.5q-66 0 -112 47 t-46 115q0 72 50 122t118 50q63 0 110 -47.5t47 -114.5q0 -31 -10 -62z" />
<glyph unicode="&#xcc;" horiz-adv-x="487" d="M92 0v1290h303v-1290h-303zM506 1528l-115 -174q-221 121 -422 291l205 202q164 -192 332 -319z" />
<glyph unicode="&#xcd;" horiz-adv-x="487" d="M92 0v1290h303v-1290h-303zM-20 1536l114 -174q221 121 422 291l-205 202q-163 -192 -331 -319z" />
<glyph unicode="&#xce;" horiz-adv-x="487" d="M92 0v1290h303v-1290h-303zM0 1358l-137 184l94 57q100 61 285 242q164 -164 284 -239l95 -58l-138 -186q-121 68 -241 188q-117 -116 -242 -188z" />
<glyph unicode="&#xcf;" horiz-adv-x="487" d="M92 0v1290h303v-1290h-303zM217 1507q-18 -51 -61 -80.5t-95 -29.5q-66 0 -112.5 47t-46.5 115q0 72 50 122t118 50q66 0 112.5 -47.5t46.5 -114.5q0 -33 -12 -62zM584 1507q-18 -49 -62.5 -79.5t-93.5 -30.5q-66 0 -113 47t-47 115q0 72 50.5 122t117.5 50 q66 0 113 -47.5t47 -114.5q0 -33 -12 -62z" />
<glyph unicode="&#xd1;" horiz-adv-x="1134" d="M1024 0h-281l-344 764q16 -82 17 -166v-598h-305v1290h329l224 -508q37 -80 55 -176v684h305v-1290zM686 1440q-55 0 -138 33.5t-120 33.5q-72 0 -145 -65l-105 149q78 72 126 97.5t130 25.5q68 0 153 -33.5t111 -33.5q57 0 127 67l117 -137l-26 -26q-22 -22 -26 -25 l-26 -22q-20 -17 -29 -22l-29 -17q-19 -11 -36 -14l-38 -7q-21 -4 -46 -4z" />
<glyph unicode="&#xd2;" horiz-adv-x="1122" d="M811 1528l-115 -174q-221 121 -422 291l205 202q164 -192 332 -319zM1061 645q0 -115 -26.5 -227.5t-82 -216t-157 -168t-234.5 -64.5t-234.5 64.5t-156.5 168t-82 216t-27 227.5t27 227.5t82 216t156.5 168t234.5 64.5t234.5 -64.5t157 -168t82 -216t26.5 -227.5z M756 645q0 66 -2 113t-13.5 107.5t-32 99.5t-57.5 66.5t-90 27.5t-90 -27.5t-57.5 -66.5t-31.5 -99.5t-13 -107.5t-2 -112.5t2 -113t13 -109t31.5 -99t57.5 -65.5t90 -28t90 28t57.5 67t32 100t13.5 108.5t2 110.5z" />
<glyph unicode="&#xd3;" horiz-adv-x="1122" d="M336 1536l115 -174q221 121 421 291l-204 202q-164 -192 -332 -319zM1061 645q0 -115 -26.5 -227.5t-82 -216t-157 -168t-234.5 -64.5t-234.5 64.5t-156.5 168t-82 216t-27 227.5t27 227.5t82 216t156.5 168t234.5 64.5t234.5 -64.5t157 -168t82 -216t26.5 -227.5z M756 645q0 66 -2 113t-13.5 107.5t-32 99.5t-57.5 66.5t-90 27.5t-90 -27.5t-57.5 -66.5t-31.5 -99.5t-13 -107.5t-2 -112.5t2 -113t13 -109t31.5 -99t57.5 -65.5t90 -28t90 28t57.5 67t32 100t13.5 108.5t2 110.5z" />
<glyph unicode="&#xd4;" horiz-adv-x="1122" d="M297 1358l-137 184l94 57q98 61 285 242q164 -164 284 -239l95 -58l-138 -186q-121 68 -241 188q-117 -116 -242 -188zM1061 645q0 -115 -26.5 -227.5t-82 -216t-157 -168t-234.5 -64.5t-234.5 64.5t-156.5 168t-82 216t-27 227.5t27 227.5t82 216t156.5 168t234.5 64.5 t234.5 -64.5t157 -168t82 -216t26.5 -227.5zM756 645q0 66 -2 113t-13.5 107.5t-32 99.5t-57.5 66.5t-90 27.5t-90 -27.5t-57.5 -66.5t-31.5 -99.5t-13 -107.5t-2 -112.5t2 -113t13 -109t31.5 -99t57.5 -65.5t90 -28t90 28t57.5 67t32 100t13.5 108.5t2 110.5z" />
<glyph unicode="&#xd5;" horiz-adv-x="1122" d="M678 1440q-55 0 -138 33.5t-120 33.5q-72 0 -146 -65l-104 149q78 72 126 97.5t130 25.5q68 0 154 -33.5t112 -33.5q25 0 55.5 16t51.5 33l18 18l117 -137l-26 -26q-22 -22 -26 -25l-26 -22q-20 -17 -30 -22l-28 -17q-19 -11 -36 -14l-38 -7q-21 -4 -46 -4zM1061 645 q0 -115 -26.5 -227.5t-82 -216t-157 -168t-234.5 -64.5t-234.5 64.5t-156.5 168t-82 216t-27 227.5t27 227.5t82 216t156.5 168t234.5 64.5t234.5 -64.5t157 -168t82 -216t26.5 -227.5zM756 645q0 66 -2 113t-13.5 107.5t-32 99.5t-57.5 66.5t-90 27.5t-90 -27.5 t-57.5 -66.5t-31.5 -99.5t-13 -107.5t-2 -112.5t2 -113t13 -109t31.5 -99t57.5 -65.5t90 -28t90 28t57.5 67t32 100t13.5 108.5t2 110.5z" />
<glyph unicode="&#xd6;" horiz-adv-x="1122" d="M1061 645q0 -115 -26.5 -227.5t-82 -216t-157 -168t-234.5 -64.5t-234.5 64.5t-156.5 168t-82 216t-27 227.5t27 227.5t82 216t156.5 168t234.5 64.5t234.5 -64.5t157 -168t82 -216t26.5 -227.5zM756 645q0 66 -2 113t-13.5 107.5t-32 99.5t-57.5 66.5t-90 27.5 t-90 -27.5t-57.5 -66.5t-31.5 -99.5t-13 -107.5t-2 -112.5t2 -113t13 -109t31.5 -99t57.5 -65.5t90 -28t90 28t57.5 67t32 100t13.5 108.5t2 110.5zM535 1509q-18 -49 -61.5 -79.5t-94.5 -30.5q-66 0 -113 47t-47 115q0 72 50 122t118 50q66 0 113 -47.5t47 -114.5 q0 -35 -12 -62zM901 1509q-20 -49 -63 -79.5t-95 -30.5q-66 0 -111.5 47t-45.5 115q0 72 50 122t118 50q63 0 111 -47.5t48 -114.5q0 -35 -12 -62z" />
<glyph unicode="&#xd8;" horiz-adv-x="1122" d="M416 324l207 725q-31 10 -62 10q-66 0 -107.5 -39t-59 -110.5t-22.5 -131t-5 -143.5q0 -217 49 -311zM702 971l-208 -727q31 -12 67 -13q45 0 79 18.5t54.5 53.5t33.5 72t18.5 90t7.5 91t2 91q-1 228 -54 324zM762 1534h102l-78 -272q139 -84 207 -258.5t68 -356.5 q0 -113 -26.5 -225.5t-82 -217t-157 -170t-234.5 -65.5q-72 0 -139 21l-80 -277h-102l92 320q-137 86 -204 262t-67 358q0 113 28 223.5t83 214t156.5 167t232.5 63.5q74 0 133 -18z" />
<glyph unicode="&#xd9;" horiz-adv-x="1142" d="M834 1528l-115 -174q-221 121 -422 291l205 202q164 -192 332 -319zM1034 514q0 -104 -23.5 -195.5t-73.5 -172t-144.5 -129t-221.5 -48.5t-221 48.5t-144 129t-73.5 172t-23.5 195.5v776h305v-776q0 -147 37.5 -215t119.5 -68t120 68t38 215v776h305v-776z" />
<glyph unicode="&#xda;" horiz-adv-x="1142" d="M319 1536l115 -174q221 121 422 291l-205 202q-164 -192 -332 -319zM1034 514q0 -104 -23.5 -195.5t-73.5 -172t-144.5 -129t-221.5 -48.5t-221 48.5t-144 129t-73.5 172t-23.5 195.5v776h305v-776q0 -147 37.5 -215t119.5 -68t120 68t38 215v776h305v-776z" />
<glyph unicode="&#xdb;" horiz-adv-x="1142" d="M307 1358l-137 184l94 57q100 61 285 242q164 -164 285 -239l94 -58l-137 -186q-121 68 -242 188q-117 -116 -242 -188zM1034 514q0 -104 -23.5 -195.5t-73.5 -172t-144.5 -129t-221.5 -48.5t-221 48.5t-144 129t-73.5 172t-23.5 195.5v776h305v-776q0 -147 37.5 -215 t119.5 -68t120 68t38 215v776h305v-776z" />
<glyph unicode="&#xdc;" horiz-adv-x="1142" d="M1034 514q0 -104 -23.5 -195.5t-73.5 -172t-144.5 -129t-221.5 -48.5t-221 48.5t-144 129t-73.5 172t-23.5 195.5v776h305v-776q0 -147 37.5 -215t119.5 -68t120 68t38 215v776h305v-776zM547 1507q-20 -49 -63.5 -79.5t-94.5 -30.5q-66 0 -112 47t-46 116.5t50.5 121 t117.5 51.5q63 0 110.5 -47.5t47.5 -114.5q0 -29 -10 -64zM911 1507q-18 -49 -61 -79.5t-94 -30.5q-66 0 -113 48t-47 116q0 70 50 121t118 51q66 0 113 -47.5t47 -114.5q-1 -33 -13 -64z" />
<glyph unicode="&#xdd;" horiz-adv-x="964" d="M367 1618l115 -174q221 121 422 291l-205 203q-164 -193 -332 -320zM961 1290l-326 -807v-483h-305l2 483l-328 807h326l151 -502l154 502h326z" />
<glyph unicode="&#xdf;" horiz-adv-x="1171" d="M115 766l-88 20v218h88v108q0 106 66.5 184t157.5 113t191 35q207 0 333 -105.5t126 -279.5q0 -51 -20.5 -99.5t-44 -81t-40 -68.5t-6 -79t55.5 -94l96 -115q55 -66 79 -120t24 -130q0 -127 -100.5 -215t-262.5 -88q-176 2 -283 80l101 232q35 -23 85 -42.5t107.5 -20.5 t83.5 32q47 57 -47 174l-88 104q-111 129 -100 228q4 33 31.5 72.5t52 92t24.5 121.5q0 82 -45 119t-149 37q-55 0 -93 -36t-38 -91v-1073h-297v768z" />
<glyph unicode="&#xe0;" horiz-adv-x="954" d="M936 12q-86 -43 -158 -43q-78 0 -123 45t-55 117q-27 -74 -98.5 -118t-151.5 -44q-313 0 -313 305q0 82 74 218l450 180v43q0 39 -34.5 60.5t-75.5 21.5q-127 0 -248 -95l-105 168q76 72 179.5 118t201.5 46q158 0 258.5 -75.5t100.5 -227.5v-534q0 -53 24 -54q12 0 29 9 zM567 477l-233 -96q-18 -55 -19 -102q0 -31 23.5 -51.5t56.5 -20.5q84 0 128 63.5t44 151.5v55zM750 1276l-115 -174q-221 121 -422 291l205 202q164 -192 332 -319z" />
<glyph unicode="&#xe1;" horiz-adv-x="954" d="M936 12q-86 -43 -158 -43q-78 0 -123 45t-55 117q-27 -74 -98.5 -118t-151.5 -44q-313 0 -313 305q0 82 74 218l450 180v43q0 39 -34.5 60.5t-75.5 21.5q-127 0 -248 -95l-105 168q76 72 179.5 118t201.5 46q158 0 258.5 -75.5t100.5 -227.5v-534q0 -53 24 -54q12 0 29 9 zM567 477l-233 -96q-18 -55 -19 -102q0 -31 23.5 -51.5t56.5 -20.5q84 0 128 63.5t44 151.5v55zM217 1284l115 -174q223 121 422 291l-205 203q-160 -193 -332 -320z" />
<glyph unicode="&#xe2;" horiz-adv-x="954" d="M936 12q-86 -43 -158 -43q-78 0 -123 45t-55 117q-27 -74 -98.5 -118t-151.5 -44q-313 0 -313 305q0 82 74 218l450 180v43q0 39 -34.5 60.5t-75.5 21.5q-127 0 -248 -95l-105 168q76 72 179.5 118t201.5 46q158 0 258.5 -75.5t100.5 -227.5v-534q0 -53 24 -54q12 0 29 9 zM567 477l-233 -96q-18 -55 -19 -102q0 -31 23.5 -51.5t56.5 -20.5q84 0 128 63.5t44 151.5v55zM207 1106l-137 184l94 58q100 61 285 241q164 -166 284 -239l94 -58l-137 -186q-121 68 -241 188q-117 -116 -242 -188z" />
<glyph unicode="&#xe3;" horiz-adv-x="954" d="M936 12q-86 -43 -158 -43q-78 0 -123 45t-55 117q-27 -74 -98.5 -118t-151.5 -44q-313 0 -313 305q0 82 74 218l450 180v43q0 39 -34.5 60.5t-75.5 21.5q-127 0 -248 -95l-105 168q76 72 179.5 118t201.5 46q158 0 258.5 -75.5t100.5 -227.5v-534q0 -53 24 -54q12 0 29 9 zM567 477l-233 -96q-18 -55 -19 -102q0 -31 23.5 -51.5t56.5 -20.5q84 0 128 63.5t44 151.5v55zM594 1188q-55 0 -138 33.5t-120 33.5q-72 0 -146 -65l-104 149q78 72 126 97.5t130 25.5q68 0 153 -33.5t111 -33.5q57 0 127 67l117 -137l-26 -26q-22 -22 -26 -25l-26 -22 q-20 -17 -30 -22l-28 -17q-19 -11 -36 -14l-38 -7q-21 -4 -46 -4z" />
<glyph unicode="&#xe4;" horiz-adv-x="954" d="M936 12q-86 -43 -158 -43q-78 0 -123 45t-55 117q-27 -74 -98.5 -118t-151.5 -44q-313 0 -313 305q0 82 74 218l450 180v43q0 39 -34.5 60.5t-75.5 21.5q-127 0 -248 -95l-105 168q76 72 179.5 118t201.5 46q158 0 258.5 -75.5t100.5 -227.5v-534q0 -53 24 -54q12 0 29 9 zM567 477l-233 -96q-18 -55 -19 -102q0 -31 23.5 -51.5t56.5 -20.5q84 0 128 63.5t44 151.5v55zM453 1223q-20 -49 -63.5 -79t-94.5 -30q-66 0 -112 47t-46 115q0 72 50.5 122t117.5 50q63 0 111.5 -47t48.5 -115q0 -22 -12 -63zM819 1223q-20 -49 -63 -79t-94 -30 q-66 0 -113 47t-47 115q0 72 50 122t118 50q66 0 112.5 -47t46.5 -115q0 -28 -10 -63z" />
<glyph unicode="&#xe5;" horiz-adv-x="954" d="M936 12q-86 -43 -158 -43q-78 0 -123 45t-55 117q-27 -74 -98.5 -118t-151.5 -44q-313 0 -313 305q0 82 74 218l450 180v43q0 39 -34.5 60.5t-75.5 21.5q-127 0 -248 -95l-105 168q76 72 179.5 118t201.5 46q158 0 258.5 -75.5t100.5 -227.5v-534q0 -53 24 -54q12 0 29 9 zM567 477l-233 -96q-18 -55 -19 -102q0 -31 23.5 -51.5t56.5 -20.5q84 0 128 63.5t44 151.5v55zM731 1364q0 -104 -74.5 -179t-179.5 -75q-106 0 -180 75t-74 179t74 179t180 75q104 0 179 -75t75 -179zM532 1363.5q0 22.5 -16 39t-38.5 16.5t-39 -16.5t-16.5 -39 t16.5 -38.5t39 -16t38.5 16t16 38.5z" />
<glyph unicode="&#xe6;" horiz-adv-x="1511" d="M864 475q-8 -102 33 -182t123 -80q156 2 280 88l86 -184q-20 -16 -55 -41t-135 -67t-188 -42q-113 0 -209.5 62.5t-134.5 142.5q-59 -84 -142.5 -143.5t-171.5 -59.5q-84 0 -112 8q-104 31 -151.5 113t-49.5 184q0 82 74 218l450 180q0 59 -22.5 92t-87.5 33 q-127 0 -248 -95l-105 168q84 70 144 103q106 61 237 61q88 0 163 -30.5t110 -81.5q45 51 123.5 81.5t168.5 30.5q184 0 291 -128t111 -267l4 -164h-586zM567 469l-231 -100q-18 -47 -19 -90q0 -72 68 -72q182 0 182 262zM1030 838q-59 0 -96 -54.5t-47 -111.5h278 q-2 59 -32.5 112.5t-102.5 53.5z" />
<glyph unicode="&#xe7;" horiz-adv-x="843" d="M446 -406l-167 132q193 66 200 110q6 39 -33.5 42t-80.5 -13l-43 -17v152h16q-94 41 -158 111q-135 150 -135 383q0 221 109 364q68 86 162 131t184 45q98 0 176 -33.5t106 -66.5l29 -33l-145 -158q-57 47 -164 48q-53 0 -106.5 -72t-53.5 -209q0 -127 50 -213t116 -86 q49 0 103.5 21.5t84.5 43.5l29 23l106 -190q-84 -74 -200 -115q102 -66 102 -156q0 -144 -287 -244z" />
<glyph unicode="&#xe8;" horiz-adv-x="960" d="M930 475h-584q-2 -10 -2 -33q0 -86 38 -157.5t118 -71.5q162 0 282 88l86 -184q-76 -63 -182 -106.5t-197 -43.5q-150 0 -253 84t-146 206t-43 267q0 211 135 360.5t344 149.5q162 0 279 -116.5t121 -278.5q4 -111 4 -164zM651 664q-2 68 -39 121t-100 53 q-57 0 -98 -56.5t-47 -117.5h284zM768 1276l-115 -174q-221 121 -422 291l205 202q160 -192 332 -319z" />
<glyph unicode="&#xe9;" horiz-adv-x="960" d="M930 475h-584q-2 -10 -2 -33q0 -86 38 -157.5t118 -71.5q162 0 282 88l86 -184q-76 -63 -182 -106.5t-197 -43.5q-150 0 -253 84t-146 206t-43 267q0 211 135 360.5t344 149.5q162 0 279 -116.5t121 -278.5q4 -111 4 -164zM651 664q-2 68 -39 121t-100 53 q-57 0 -98 -56.5t-47 -117.5h284zM272 1284l115 -174q221 121 422 291l-205 203q-160 -193 -332 -320z" />
<glyph unicode="&#xea;" horiz-adv-x="960" d="M930 475h-584q-2 -10 -2 -33q0 -86 38 -157.5t118 -71.5q162 0 282 88l86 -184q-76 -63 -182 -106.5t-197 -43.5q-150 0 -253 84t-146 206t-43 267q0 211 135 360.5t344 149.5q162 0 279 -116.5t121 -278.5q4 -111 4 -164zM651 664q-2 68 -39 121t-100 53 q-57 0 -98 -56.5t-47 -117.5h284zM242 1106l-138 184l95 58q98 61 284 241q164 -166 285 -239l94 -58l-137 -186q-121 68 -242 188q-116 -116 -241 -188z" />
<glyph unicode="&#xeb;" horiz-adv-x="960" d="M930 475h-584q-2 -10 -2 -33q0 -86 38 -157.5t118 -71.5q162 0 282 88l86 -184q-76 -63 -182 -106.5t-197 -43.5q-150 0 -253 84t-146 206t-43 267q0 211 135 360.5t344 149.5q162 0 279 -116.5t121 -278.5q4 -111 4 -164zM651 664q-2 68 -39 121t-100 53 q-57 0 -98 -56.5t-47 -117.5h284zM485 1223q-18 -49 -61 -79t-94 -30q-66 0 -113 47t-47 115q0 72 50 122t118 50q66 0 113 -47t47 -115q-1 -32 -13 -63zM852 1223q-18 -49 -62.5 -79t-93.5 -30q-66 0 -112.5 47t-46.5 115q0 72 50 122t118 50q66 0 112.5 -47t46.5 -115 q0 -32 -12 -63z" />
<glyph unicode="&#xec;" horiz-adv-x="487" d="M96 0v1004h293v-1004h-293zM508 1276l-115 -174q-221 121 -422 291l205 202q164 -192 332 -319z" />
<glyph unicode="&#xed;" horiz-adv-x="487" d="M96 0v1004h293v-1004h-293zM-20 1284l114 -174q221 121 422 291l-205 203q-159 -193 -331 -320z" />
<glyph unicode="&#xee;" horiz-adv-x="487" d="M96 0v1004h293v-1004h-293zM-20 1106l-138 184l95 58q100 61 284 241q164 -166 285 -239l94 -58l-137 -186q-121 68 -242 188q-116 -116 -241 -188z" />
<glyph unicode="&#xef;" horiz-adv-x="487" d="M96 0v1004h293v-1004h-293zM217 1223q-20 -49 -63 -79t-95 -30q-66 0 -111.5 47t-45.5 115q0 72 50 122t118 50q63 0 110 -47t47 -115q0 -28 -10 -63zM582 1223q-18 -49 -61.5 -79t-94.5 -30q-66 0 -113 47t-47 115q0 72 50.5 122t117.5 50q66 0 113 -47t47 -115 q0 -32 -12 -63z" />
<glyph unicode="&#xf1;" horiz-adv-x="1062" d="M657 0v725q0 63 -51 63q-33 0 -64.5 -9t-47 -17t-47.5 -30l-37 -25v-707h-297v1004h297v-74q147 104 233 104q94 0 158.5 -26.5t96.5 -73.5t44 -96.5t12 -112.5v-725h-297zM664 1188q-55 0 -137.5 33.5t-120.5 33.5q-70 0 -144 -65l-104 149q78 72 126 97.5t128 25.5 q70 0 154.5 -33.5t111.5 -33.5q57 0 127 67l117 -137l-26 -26q-22 -22 -27 -25l-25 -22q-20 -17 -30 -22l-30 -17q-20 -11 -35.5 -14l-37.5 -7t-47 -4z" />
<glyph unicode="&#xf2;" horiz-adv-x="999" d="M499.5 -31q-147.5 0 -254 86t-151.5 203t-45 244t45 243.5t151.5 202.5t254 86t254 -86t151.5 -202.5t45 -243.5t-45 -244t-151.5 -203t-254 -86zM499.5 786q-71.5 0 -112.5 -75.5t-41 -208.5t41 -210t112.5 -77t112.5 77t41 210t-41 208.5t-112.5 75.5zM764 1276 l-115 -174q-221 121 -422 291l205 202q164 -192 332 -319z" />
<glyph unicode="&#xf3;" horiz-adv-x="999" d="M499.5 -31q-147.5 0 -254 86t-151.5 203t-45 244t45 243.5t151.5 202.5t254 86t254 -86t151.5 -202.5t45 -243.5t-45 -244t-151.5 -203t-254 -86zM499.5 786q-71.5 0 -112.5 -75.5t-41 -208.5t41 -210t112.5 -77t112.5 77t41 210t-41 208.5t-112.5 75.5zM229 1284 l115 -174q221 121 422 291l-205 203q-160 -193 -332 -320z" />
<glyph unicode="&#xf4;" horiz-adv-x="999" d="M499.5 -31q-147.5 0 -254 86t-151.5 203t-45 244t45 243.5t151.5 202.5t254 86t254 -86t151.5 -202.5t45 -243.5t-45 -244t-151.5 -203t-254 -86zM499.5 786q-71.5 0 -112.5 -75.5t-41 -208.5t41 -210t112.5 -77t112.5 77t41 210t-41 208.5t-112.5 75.5zM231 1106 l-137 184l94 58q100 61 285 241q164 -166 285 -239l94 -58l-137 -186q-121 68 -242 188q-117 -116 -242 -188z" />
<glyph unicode="&#xf5;" horiz-adv-x="999" d="M499.5 -31q-147.5 0 -254 86t-151.5 203t-45 244t45 243.5t151.5 202.5t254 86t254 -86t151.5 -202.5t45 -243.5t-45 -244t-151.5 -203t-254 -86zM499.5 786q-71.5 0 -112.5 -75.5t-41 -208.5t41 -210t112.5 -77t112.5 77t41 210t-41 208.5t-112.5 75.5zM623 1188 q-55 0 -138.5 33.5t-119.5 33.5q-70 0 -144 -65l-104 149q78 72 126 97.5t128 25.5q68 0 153.5 -33.5t112.5 -33.5q57 0 127 67l117 -137l-26 -26q-22 -22 -27 -25l-25 -22q-20 -17 -30 -22l-30 -17q-20 -11 -35.5 -14l-37.5 -7t-47 -4z" />
<glyph unicode="&#xf6;" horiz-adv-x="999" d="M499.5 -31q-147.5 0 -254 86t-151.5 203t-45 244t45 243.5t151.5 202.5t254 86t254 -86t151.5 -202.5t45 -243.5t-45 -244t-151.5 -203t-254 -86zM499.5 786q-71.5 0 -112.5 -75.5t-41 -208.5t41 -210t112.5 -77t112.5 77t41 210t-41 208.5t-112.5 75.5zM471 1223 q-20 -49 -63 -79t-95 -30q-66 0 -111.5 47t-45.5 115q0 72 50 122t118 50q63 0 110 -47t47 -115q0 -28 -10 -63zM836 1223q-18 -49 -61.5 -79t-94.5 -30q-66 0 -113 47t-47 115q0 72 50.5 122t117.5 50q66 0 113 -47t47 -115q0 -32 -12 -63z" />
<glyph unicode="&#xf7;" horiz-adv-x="1001" d="M481 696q-76 0 -128 45t-52 115q0 74 59.5 126t139.5 52q76 0 128 -45t52 -115q0 -74 -59.5 -126t-139.5 -52zM55 393v244h889v-244h-889zM481 0q-76 0 -128 45t-52 115q0 74 59.5 126t139.5 52q76 0 128 -45t52 -115q0 -74 -59.5 -126t-139.5 -52z" />
<glyph unicode="&#xf8;" horiz-adv-x="999" d="M387 291l141 493q-10 2 -28 2q-72 0 -113 -76.5t-41 -209.5t41 -209zM610 713l-141 -494q20 -4 31 -4q72 0 112.5 76t40.5 209q0 139 -43 213zM643 1186h102l-55 -195q127 -63 193.5 -202.5t66.5 -288.5q0 -94 -27.5 -185.5t-79.5 -170t-141.5 -127t-201.5 -48.5 q-47 0 -99 11l-61 -213h-102l69 245q-125 63 -191.5 200.5t-66.5 287.5q0 94 27.5 185t80 171t141.5 129t202 49q49 0 96 -10z" />
<glyph unicode="&#xf9;" horiz-adv-x="1058" d="M909 -31q-121 14 -194 119q-162 -119 -287 -119q-317 0 -317 305v730h297v-730q0 -35 15 -48t50 -13q66 0 182 80v711h297v-795q0 -51 52 -84zM788 1276l-114 -174q-221 121 -422 291l205 202q163 -192 331 -319z" />
<glyph unicode="&#xfa;" horiz-adv-x="1058" d="M909 -31q-121 14 -194 119q-162 -119 -287 -119q-317 0 -317 305v730h297v-730q0 -35 15 -48t50 -13q66 0 182 80v711h297v-795q0 -51 52 -84zM262 1284l115 -174q215 117 422 291l-205 203q-160 -193 -332 -320z" />
<glyph unicode="&#xfb;" horiz-adv-x="1058" d="M909 -31q-121 14 -194 119q-162 -119 -287 -119q-317 0 -317 305v730h297v-730q0 -35 15 -48t50 -13q66 0 182 80v711h297v-795q0 -51 52 -84zM258 1106l-137 184l94 58q98 61 285 241q162 -166 284 -239l95 -58l-138 -186q-121 68 -241 188q-117 -116 -242 -188z" />
<glyph unicode="&#xfc;" horiz-adv-x="1058" d="M909 -31q-121 14 -194 119q-162 -119 -287 -119q-317 0 -317 305v730h297v-730q0 -35 15 -48t50 -13q66 0 182 80v711h297v-795q0 -51 52 -84zM506 1223q-18 -49 -61.5 -79t-94.5 -30q-66 0 -113 47t-47 115q0 72 50.5 122t117.5 50q66 0 113 -47t47 -115q0 -32 -12 -63z M872 1223q-20 -49 -63 -79t-92 -30q-66 0 -113 47t-47 115q0 72 50 122t118 50q63 0 111.5 -47t48.5 -115q-1 -32 -13 -63z" />
<glyph unicode="&#xfd;" horiz-adv-x="929" d="M350 1331l115 -174q221 121 422 291l-205 203q-164 -193 -332 -320zM483 346q78 283 125 658h305q-29 -154 -70.5 -323t-106 -380t-152.5 -376t-181 -226q-37 -25 -96 -46.5t-102 -29.5l-41 -10l-68 217q72 25 113 50.5t57.5 46t46.5 73.5l13 20l-308 984h316 q137 -459 149 -658z" />
<glyph unicode="&#xff;" horiz-adv-x="929" d="M483 346q78 283 125 658h305q-29 -154 -70.5 -323t-106 -380t-152.5 -376t-181 -226q-37 -25 -96 -46.5t-102 -29.5l-41 -10l-68 217q72 25 113 50.5t57.5 46t46.5 73.5l13 20l-308 984h316q137 -459 149 -658zM455 1223q-18 -49 -61.5 -79t-94.5 -30q-66 0 -113 47 t-47 115q0 72 50.5 122t117.5 50q66 0 113 -47t47 -115q0 -32 -12 -63zM821 1223q-18 -49 -62 -79t-93 -30q-66 0 -113 47t-47 115q0 72 50 122t118 50q66 0 113 -47t47 -115q-1 -32 -13 -63z" />
<glyph unicode="&#x152;" horiz-adv-x="1290" d="M582 0q-129 0 -232.5 63.5t-164 164t-92.5 211t-32 214.5q0 102 33 210t93.5 205t164 159.5t230.5 62.5h663v-262h-432v-225h322v-266h-322v-271h453v-266h-684zM508 1042q-66 -18 -113 -155t-47 -252q0 -113 43 -234.5t117 -152.5v794z" />
<glyph unicode="&#x153;" horiz-adv-x="1558" d="M930 475q-8 -102 33 -182t122 -80q156 2 281 88l86 -184q-20 -16 -55 -41t-135.5 -67t-188.5 -42q-162 0 -278 107q-119 -104 -281 -105q-113 0 -202 48.5t-141 127t-80 170t-28 185.5t28 185t80 171t141 129t202 49q170 0 289 -112q123 113 307 112.5t290.5 -128.5 t110.5 -267l5 -164h-586zM514 786q-72 0 -113 -76.5t-41 -209.5t41 -209t113 -76t113 76t41 209t-41 209.5t-113 76.5zM1096 838q-59 0 -96 -54.5t-48 -111.5h279q-2 59 -32.5 112.5t-102.5 53.5z" />
<glyph unicode="&#x178;" horiz-adv-x="964" d="M961 1290l-328 -807l2 -483h-305v483l-326 807h326l151 -502l154 502h326zM455 1507q-18 -49 -62.5 -79.5t-93.5 -30.5q-66 0 -113 47t-47 115q0 72 50.5 122t117.5 50q66 0 113 -47.5t47 -114.5q0 -33 -12 -62zM821 1507q-20 -51 -63 -80.5t-94 -29.5q-66 0 -112 47 t-46 115q0 72 50 122t118 50q63 0 111.5 -47.5t48.5 -114.5q-1 -25 -13 -62z" />
<glyph unicode="&#x2c6;" horiz-adv-x="823" d="M170 1106l-137 184l94 58q98 61 285 241q164 -166 284 -239l95 -58l-138 -186q-121 68 -241 188q-117 -116 -242 -188z" />
<glyph unicode="&#x2dc;" horiz-adv-x="778" d="M508 1188q-57 0 -139 33.5t-119 33.5q-72 0 -146 -65l-104 149q78 72 126 97.5t128 25.5q70 0 155 -33.5t111 -33.5q57 0 127 67l117 -137l-26 -26q-22 -22 -26 -25l-26 -22q-20 -17 -30 -22l-28 -17q-19 -11 -36 -14l-38 -7q-21 -4 -46 -4z" />
<glyph unicode="&#x2000;" horiz-adv-x="968" />
<glyph unicode="&#x2001;" horiz-adv-x="1937" />
<glyph unicode="&#x2002;" horiz-adv-x="968" />
<glyph unicode="&#x2003;" horiz-adv-x="1937" />
<glyph unicode="&#x2004;" horiz-adv-x="645" />
<glyph unicode="&#x2005;" horiz-adv-x="483" />
<glyph unicode="&#x2006;" horiz-adv-x="321" />
<glyph unicode="&#x2007;" horiz-adv-x="321" />
<glyph unicode="&#x2008;" horiz-adv-x="241" />
<glyph unicode="&#x2009;" horiz-adv-x="387" />
<glyph unicode="&#x200a;" horiz-adv-x="106" />
<glyph unicode="&#x2010;" horiz-adv-x="618" d="M565 408h-520v227h520v-227z" />
<glyph unicode="&#x2011;" horiz-adv-x="618" d="M565 408h-520v227h520v-227z" />
<glyph unicode="&#x2012;" horiz-adv-x="618" d="M565 408h-520v227h520v-227z" />
<glyph unicode="&#x2013;" horiz-adv-x="733" d="M-41 430v184h815v-184h-815z" />
<glyph unicode="&#x2014;" horiz-adv-x="1245" d="M-41 432v184h1327v-184h-1327z" />
<glyph unicode="&#x2018;" horiz-adv-x="546" d="M35 985q154 289 309 428l145 -98q-117 -147 -116 -248q0 -2 18 -156q-90 -68 -162 -67q-47 0 -101 45t-93 96z" />
<glyph unicode="&#x2019;" horiz-adv-x="552" d="M510 1221q-158 -293 -309 -428l-146 98q115 152 115 248q0 25 -16 155q84 68 161 68q45 0 101.5 -46t93.5 -95z" />
<glyph unicode="&#x201a;" horiz-adv-x="528" d="M481 100q-154 -289 -309 -428l-145 99q115 152 114 247q0 18 -16 156q90 68 162 68q45 0 101 -46.5t93 -95.5z" />
<glyph unicode="&#x201c;" horiz-adv-x="913" d="M406 985q154 289 309 428l145 -98q-115 -152 -115 -248q0 -18 17 -156q-90 -68 -162 -67q-45 0 -100 45t-94 96zM29 985q160 291 309 428l145 -98q-115 -152 -114 -248q0 -29 7 -84l9 -72q-90 -68 -162 -67q-81 0 -194 141z" />
<glyph unicode="&#x201d;" horiz-adv-x="913" d="M512 1221q-158 -293 -309 -428l-146 98q117 147 117 248q0 8 -18 155q88 68 161 68q47 0 102.5 -45t92.5 -96zM889 1221q-158 -293 -309 -428l-146 98q43 53 79 124.5t36 123.5q0 25 -17 155q84 68 162 68q47 0 102.5 -45t92.5 -96z" />
<glyph unicode="&#x201e;" horiz-adv-x="913" d="M496 106q-154 -289 -310 -428l-145 99q115 152 115 248q0 18 -17 155q90 68 162 68q45 0 100.5 -45.5t94.5 -96.5zM874 106q-78 -143 -147.5 -244.5t-161.5 -183.5l-145 99q115 152 115 248q0 18 -17 155q90 68 162 68q81 -1 194 -142z" />
<glyph unicode="&#x2022;" horiz-adv-x="868" d="M29 649q0 168 117.5 286t285.5 118t286 -118t118 -286t-118 -285.5t-286 -117.5t-285.5 117.5t-117.5 285.5z" />
<glyph unicode="&#x2026;" horiz-adv-x="1236" d="M217 -31q-70 0 -123 46t-53 116q0 72 56.5 122t129.5 50q70 0 123 -46t53 -116q0 -72 -56 -122t-130 -50zM612 -31q-72 0 -125 46t-53 116q0 72 57.5 122t131.5 50q70 0 123 -46t53 -116q0 -72 -56.5 -122t-130.5 -50zM1010 -31q-72 0 -125.5 46t-53.5 116q0 72 57.5 122 t131.5 50q70 0 123 -46t53 -116q0 -72 -56 -122t-130 -50z" />
<glyph unicode="&#x202f;" horiz-adv-x="387" />
<glyph unicode="&#x2039;" horiz-adv-x="614" d="M387 80l-354 432l352 432l207 -168l-199 -262l201 -270z" />
<glyph unicode="&#x203a;" horiz-adv-x="614" d="M238 80l354 432l-352 432l-207 -168l198 -262l-200 -270z" />
<glyph unicode="&#x2044;" horiz-adv-x="694" d="M66 -256h-289l868 1769h289z" />
<glyph unicode="&#x205f;" horiz-adv-x="483" />
<glyph unicode="&#x2122;" horiz-adv-x="1642" d="M643 1237h-154v-643h-190v643h-152v170h496v-170zM1499 596h-192v356l10 99l-154 -455h-147l-154 455l10 -99v-356h-192v813h211l178 -494l21 -86q6 51 18 86l180 494h211v-813z" />
<glyph unicode="&#xe000;" horiz-adv-x="1004" d="M0 1005h1005v-1005h-1005v1005z" />
<glyph unicode="&#xfb01;" horiz-adv-x="1069" d="M672 0v1004h293v-1004h-293zM987 1194q-20 -49 -69.5 -79t-104.5 -30q-72 0 -123 44.5t-53 107.5q-63 16 -143 -36t-80 -116v-81h145v-238h-145v-766h-297v776l-90 21v207h90v94q0 156 131 250q125 90 319.5 105t315.5 -44q117 -53 116 -152q0 -32 -12 -63z" />
<glyph unicode="&#xfb02;" horiz-adv-x="1069" d="M750 0q-78 127 -78 436v793h-88q-170 0 -170 -111v-114h145v-238h-145v-766h-297v776l-90 21v207h90v126q0 98 41 168t104.5 102t140 50t149.5 13t132 -7l281 -33v-987q0 -117 14 -225.5t29 -159.5l14 -51h-272z" />
<glyph unicode="&#xfb03;" horiz-adv-x="1658" d="M1267 0v1004h293v-1004h-293zM1411 1106q-72 0 -125.5 46t-53.5 116q0 72 57.5 123t129 51t125 -47t53.5 -117q0 -74 -56 -123t-130 -49zM1166 1235q-6 -2 -17.5 -4t-40 -13.5t-50 -26.5t-40 -43t-18.5 -63v-81h153v-240h-153v-764h-297v774l-101 17v213h101v94 q0 96 43 167.5t104.5 104.5t123 52.5t104.5 21.5l43 2zM580 1235q-6 -2 -17.5 -4t-40 -13.5t-50 -26.5t-40 -43t-18.5 -63v-81h153v-240h-153v-764h-297v774l-101 17v213h101v94q0 96 43 167.5t104.5 104.5t123 52.5t104.5 21.5l43 2z" />
<glyph unicode="&#xfb04;" horiz-adv-x="1654" d="M1325 0q-70 158 -70 436v987h293v-987q0 -117 16.5 -225.5t32.5 -159.5l14 -51h-286zM1166 1235q-6 -2 -17.5 -4t-40 -13.5t-50 -26.5t-40 -43t-18.5 -63v-81h153v-240h-153v-764h-297v774l-101 17v213h101v94q0 96 43 167.5t104.5 104.5t123 52.5t104.5 21.5l43 2z M580 1235q-6 -2 -17.5 -4t-40 -13.5t-50 -26.5t-40 -43t-18.5 -63v-81h153v-240h-153v-764h-297v774l-101 17v213h101v94q0 96 43 167.5t104.5 104.5t123 52.5t104.5 21.5l43 2z" />
</font>
</defs>
</svg>
